<?xml version="1.0" encoding="utf-8"?>
<!-- Generator: Adobe Illustrator 21.1.0, SVG Export Plug-In . SVG Version: 6.00 Build 0)  -->
<svg version="1.1" id="Layer_1" xmlns="http://www.w3.org/2000/svg" xmlns:xlink="http://www.w3.org/1999/xlink" x="0px" y="0px"
	 viewBox="0 0 2490 198" style="enable-background:new 0 0 2490 198;" xml:space="preserve">
<style type="text/css">
	.st0{display:none;}
	.st1{display:inline;}
	.st2{clip-path:url(#SVGID_2_);}
	.st3{display:inline;fill:#F26A26;stroke:#000000;stroke-miterlimit:10;}
	.st4{opacity:0.21;clip-path:url(#SVGID_4_);}
	.st5{fill:none;stroke:#000000;stroke-width:60;stroke-miterlimit:10;}
	.st6{clip-path:url(#SVGID_6_);}
	.st7{fill:#F26A26;}
	.st8{opacity:0.18;}
	.st9{fill:none;stroke:#FFFFFF;stroke-width:40;stroke-miterlimit:10;}
	.st10{opacity:0.21;clip-path:url(#SVGID_8_);}
	.st11{fill:none;}
</style>
<g class="st0">
	<defs>
		<rect id="SVGID_1_" x="0.8" y="-16.5" width="2490.7" height="232"/>
	</defs>
	<clipPath id="SVGID_2_" class="st1">
		<use xlink:href="#SVGID_1_"  style="overflow:visible;"/>
	</clipPath>
	<g id="Layer_1_1_" class="st2">
		<rect x="0.8" y="-1342" class="st3" width="2490.7" height="2490.7"/>
		<g class="st1">
			<g>
				<defs>
					<rect id="SVGID_3_" x="0.8" y="-1342" width="2490.7" height="2490.7"/>
				</defs>
				<clipPath id="SVGID_4_">
					<use xlink:href="#SVGID_3_"  style="overflow:visible;"/>
				</clipPath>
				<g class="st4">
					<polyline class="st5" points="2547.3,1089.1 1247.5,-1162.1 -163.5,1281.8 					"/>
					<polyline class="st5" points="2411.2,1249.2 1247.5,-766.4 55.2,1298.8 					"/>
					<polyline class="st5" points="2575.8,741.2 1247.5,-1559.5 -292.9,1108.5 					"/>
					<polyline class="st5" points="2140.9,1178.1 1247.5,-369.2 354.2,1178.1 					"/>
					<polyline class="st5" points="2836.2,783.5 1247.5,-1968.2 -341.1,783.5 					"/>
					<polyline class="st5" points="3194.5,990.3 1247.5,-2381.9 -699.4,990.3 					"/>
					<polyline class="st5" points="3565.8,1204.7 1247.5,-2810.6 -1070.7,1204.7 					"/>
					<polyline class="st5" points="2140.9,1583.9 1247.5,36.6 354.2,1583.9 					"/>
					<polyline class="st5" points="2140.9,1986.8 1247.5,439.5 354.2,1986.8 					"/>
					<polyline class="st5" points="2140.9,2389.8 1247.5,842.5 354.2,2389.8 					"/>
					<polyline class="st5" points="3565.8,805.8 1247.5,-3209.5 -1070.7,805.8 					"/>
				</g>
			</g>
		</g>
	</g>
</g>
<g>
	<defs>
		<rect id="SVGID_5_" x="0" y="-0.5" width="2491.5" height="198"/>
	</defs>
	<clipPath id="SVGID_6_">
		<use xlink:href="#SVGID_5_"  style="overflow:visible;"/>
	</clipPath>
	<g id="Layer_1_copy" class="st6">
		<rect x="0" y="-36" class="st7" width="2491.5" height="233.5"/>
		<g class="st8">
			<polyline class="st9" points="2312.6,1277.9 1243.8,-573.3 83.6,1436.3 			"/>
			<polyline class="st9" points="2200.7,1409.5 1243.8,-247.9 263.4,1450.2 			"/>
			<polyline class="st9" points="2336.1,991.8 1243.8,-900 -22.8,1293.8 			"/>
			<polyline class="st9" points="1978.4,1351 1243.8,78.7 509.3,1351 			"/>
			<polyline class="st9" points="2550.1,1026.6 1243.8,-1236 -62.5,1026.6 			"/>
			<polyline class="st9" points="2844.8,1196.6 1243.8,-1576.2 -357.1,1196.6 			"/>
			<polyline class="st9" points="3150,1372.9 1243.8,-1928.7 -662.3,1372.9 			"/>
			<polyline class="st9" points="1978.4,1684.7 1243.8,412.4 509.3,1684.7 			"/>
			<polyline class="st9" points="1978.4,2016 1243.8,743.7 509.3,2016 			"/>
			<polyline class="st9" points="1978.4,2347.4 1243.8,1075.1 509.3,2347.4 			"/>
			<polyline class="st9" points="3150,1044.9 1243.8,-2256.7 -662.3,1044.9 			"/>
		</g>
		<g class="st0">
			<g class="st1">
				<defs>
					<rect id="SVGID_7_" x="221" y="-36" width="2048" height="260.7"/>
				</defs>
				<clipPath id="SVGID_8_">
					<use xlink:href="#SVGID_7_"  style="overflow:visible;"/>
				</clipPath>
				<g class="st10">
					<polyline class="st5" points="2312.6,1587.9 1243.9,-263.3 83.6,1746.3 					"/>
					<polyline class="st5" points="2200.7,1719.5 1243.9,62.1 263.4,1760.2 					"/>
					<polyline class="st5" points="2336.1,1301.7 1243.9,-590 -22.8,1603.8 					"/>
					<polyline class="st5" points="1978.4,1661 1243.9,388.7 509.3,1661 					"/>
					<polyline class="st5" points="2550.2,1336.6 1243.9,-926 -62.4,1336.6 					"/>
					<polyline class="st5" points="2844.8,1506.6 1243.9,-1266.2 -357.1,1506.6 					"/>
					<polyline class="st5" points="3150,1682.9 1243.9,-1618.7 -662.3,1682.9 					"/>
					<polyline class="st5" points="1978.4,1994.7 1243.9,722.4 509.3,1994.7 					"/>
					<polyline class="st5" points="1978.4,2326 1243.9,1053.7 509.3,2326 					"/>
					<polyline class="st5" points="1978.4,2657.4 1243.9,1385.1 509.3,2657.4 					"/>
					<polyline class="st5" points="3150,1354.9 1243.9,-1946.7 -662.3,1354.9 					"/>
				</g>
			</g>
		</g>
	</g>
</g>
<rect x="1245" y="214.8" class="st11" width="0.7" height="0.7"/>
</svg>
