<?xml version="1.0" encoding="utf-8"?>
<!-- Generator: Adobe Illustrator 23.1.0, SVG Export Plug-In . SVG Version: 6.00 Build 0)  -->
<svg version="1.1" xmlns="http://www.w3.org/2000/svg" xmlns:xlink="http://www.w3.org/1999/xlink" x="0px" y="0px"
	 viewBox="0 0 1098.55 527.3" style="enable-background:new 0 0 1098.55 527.3;" xml:space="preserve">
<style type="text/css">
	.st0{fill:none;}
	.st1{fill:#F26926;}
</style>
<g id="Layer_4">
	<circle class="st0" cx="140.6" cy="196.2" r="11.87"/>
	<path class="st1" d="M221.91,157.5l-9.38-21.8c-2.32-5.4,0.19-11.71,5.59-14.03l0,0c5.4-2.32,11.71,0.19,14.03,5.59l9.38,21.8
		c2.32,5.4-0.19,11.71-5.59,14.03h0C230.55,165.41,224.23,162.89,221.91,157.5z"/>
	<path class="st1" d="M314.17,130.48l-7.07-44.04c-0.93-5.8,3.05-11.31,8.85-12.24l0,0c5.8-0.93,11.31,3.05,12.24,8.85l7.07,44.04
		c0.93,5.8-3.05,11.31-8.85,12.24h0C320.61,140.27,315.1,136.28,314.17,130.48z"/>
	<path class="st1" d="M406.9,114.87l3.04-66.24c0.27-5.87,5.29-10.45,11.16-10.18l0,0c5.87,0.27,10.45,5.29,10.18,11.16l-3.04,66.24
		c-0.27,5.87-5.29,10.45-11.16,10.18h0C411.21,125.76,406.63,120.74,406.9,114.87z"/>
	<path class="st1" d="M501.82,109.74l12.8-83.54c0.89-5.81,6.37-9.83,12.18-8.94v0c5.81,0.89,9.83,6.37,8.94,12.18l-12.8,83.54
		c-0.89,5.81-6.37,9.83-12.18,8.94l0,0C504.96,121.02,500.93,115.54,501.82,109.74z"/>
	<path class="st1" d="M595.24,122.23l29.05-104.69c1.57-5.66,7.49-9.01,13.15-7.44l0,0c5.66,1.57,9.01,7.49,7.44,13.15
		l-29.05,104.69c-1.57,5.66-7.49,9.01-13.15,7.44l0,0C597.01,133.81,593.66,127.9,595.24,122.23z"/>
	<path class="st1" d="M684.07,144.81L739.1,22.02c2.4-5.36,8.75-7.78,14.12-5.38v0c5.36,2.4,7.78,8.75,5.38,14.12l-55.03,122.79
		c-2.4,5.36-8.75,7.78-14.12,5.38v0C684.09,156.52,681.67,150.17,684.07,144.81z"/>
	<path class="st1" d="M773.09,171.67l79.16-131.33c3.03-5.03,9.63-6.67,14.66-3.63l0,0c5.03,3.03,6.67,9.63,3.63,14.66
		l-79.16,131.33c-3.03,5.03-9.63,6.67-14.66,3.63v0C771.69,183.3,770.05,176.7,773.09,171.67z"/>
	<path class="st1" d="M858.56,219.88L960.84,79.2c3.45-4.75,10.17-5.81,14.92-2.36l0,0c4.75,3.45,5.81,10.17,2.36,14.92
		L875.84,232.45c-3.45,4.75-10.17,5.81-14.92,2.36v0C856.17,231.35,855.11,224.64,858.56,219.88z"/>
	<path class="st1" d="M937.28,273.6l132.49-141.78c4.01-4.29,10.8-4.52,15.1-0.51v0c4.29,4.01,4.52,10.8,0.51,15.1L952.89,288.18
		c-4.01,4.29-10.8,4.52-15.1,0.51v0C933.5,284.68,933.27,277.89,937.28,273.6z"/>
	<circle class="st1" cx="140.08" cy="196.52" r="11.08"/>
</g>
<g id="Layer_3">
	<path class="st1" d="M1072.84,361.54c-10.68-20.18-51.03-33.23-119.87-46.29c-68.84-13.05-138.86-20.18-138.86-20.18
		s-109.58-86.64-232.62-104.84c-87.39-12.93-206.11-7.91-282.46,10.68c-40.28,9.81-168.53,70.42-168.53,70.42l-71.01,1.68
		c0,0-12.21-1.13-21.56,9c-8.31,9-2.37,61.71-2.37,61.71s-24.92,4.75-23.74,33.23c1.19,28.48,6.33,49.05,24.13,59.74
		c17.8,10.68,32.44,5.54,63.3,10.29c30.86,4.75,33.23,14.64,33.23,14.64s-10.68-113.93,92.57-113.93s104.84,111.56,104.84,111.56
		l468.79,1.58c0,0-7.65-116.04,88.88-116.31c104.85-0.29,108.13,112.35,108.13,112.35l77.14-5.14c0,0,8.31-5.93,11.87-22.55
		C1088.26,412.57,1083.52,381.71,1072.84,361.54z M239.82,274.64c0,0,5.94-20.28,29.54-40.09c25.22-21.16,45-23.34,45-23.34
		l0.89,67.65L239.82,274.64z M327.91,278.86l-1.09-69.82c0,0,10.05-4.02,74.93-9.3s92.84-3.43,92.84-3.43l13.71,87.3L327.91,278.86z
		 M518.86,284.13l-14.24-88.09c0,0,72.26-0.26,134.24,21.89c90.97,32.52,117.89,72,117.89,72L518.86,284.13z"/>
	<path class="st1" d="M892.44,363.52c-43.26,0-78.33,35.07-78.33,78.33c0,43.26,35.07,78.33,78.33,78.33
		c43.26,0,78.33-35.07,78.33-78.33C970.77,398.59,935.7,363.52,892.44,363.52z M892.44,486.95c-24.91,0-45.1-20.19-45.1-45.1
		c0-24.91,20.19-45.1,45.1-45.1c24.91,0,45.1,20.19,45.1,45.1C937.54,466.75,917.35,486.95,892.44,486.95z"/>
	<path class="st1" d="M225.45,363.52c-43.26,0-78.33,35.07-78.33,78.33c0,43.26,35.07,78.33,78.33,78.33
		c43.26,0,78.33-35.07,78.33-78.33C303.78,398.59,268.71,363.52,225.45,363.52z M225.45,486.95c-24.91,0-45.1-20.19-45.1-45.1
		c0-24.91,20.19-45.1,45.1-45.1s45.1,20.19,45.1,45.1C270.55,466.75,250.36,486.95,225.45,486.95z"/>
	<circle class="st1" cx="892.44" cy="441.85" r="32.84"/>
	<circle class="st1" cx="226.24" cy="441.85" r="32.84"/>
</g>
</svg>
