<?xml version="1.0" encoding="utf-8"?>
<!-- Generator: Adobe Illustrator 21.1.0, SVG Export Plug-In . SVG Version: 6.00 Build 0)  -->
<svg version="1.1" id="Layer_1" opacity="0.5" xmlns="http://www.w3.org/2000/svg" xmlns:xlink="http://www.w3.org/1999/xlink"
	 x="0px" y="0px" viewBox="0 0 2048 2048" style="enable-background:new 0 0 2048 2048;" xml:space="preserve">
<style type="text/css">
	.st0{clip-path:url(#SVGID_2_);}
	.st1{fill:#F26A26;stroke:#000000;stroke-miterlimit:10;}
	.st2{opacity:0.23;}
	.st3{fill:none;stroke:#FFFFFF;stroke-width:40;stroke-miterlimit:10;}
	.st4{display:none;}
	.st5{display:inline;}
	.st6{opacity:0.21;clip-path:url(#SVGID_4_);}
	.st7{fill:none;stroke:#000000;stroke-width:60;stroke-miterlimit:10;}
</style>
<g>
	<defs>
		<rect id="SVGID_1_" width="2048" height="2048"/>
	</defs>
	<clipPath id="SVGID_2_">
		<use xlink:href="#SVGID_1_"  style="overflow:visible;"/>
	</clipPath>
	<g id="Layer_1_1_" class="st0">
		<rect class="st1" width="2048" height="2048"/>
		<g class="st2">
			<polyline class="st3" points="2093.9,1999.1 1025.1,147.9 -135.1,2157.5 			"/>
			<polyline class="st3" points="1982,2130.6 1025.1,473.3 44.7,2171.4 			"/>
			<polyline class="st3" points="2117.4,1712.9 1025.1,-178.9 -241.5,2015 			"/>
			<polyline class="st3" points="1759.7,2072.2 1025.1,799.9 290.6,2072.2 			"/>
			<polyline class="st3" points="2331.4,1747.7 1025.1,-514.8 -281.2,1747.7 			"/>
			<polyline class="st3" points="2626.1,1917.8 1025.1,-855 -575.8,1917.8 			"/>
			<polyline class="st3" points="2931.3,2094.1 1025.1,-1207.6 -881,2094.1 			"/>
			<polyline class="st3" points="1759.7,2405.9 1025.1,1133.6 290.6,2405.9 			"/>
			<polyline class="st3" points="1759.7,2737.2 1025.1,1464.9 290.6,2737.2 			"/>
			<polyline class="st3" points="1759.7,3068.5 1025.1,1796.3 290.6,3068.5 			"/>
			<polyline class="st3" points="2931.3,1766.1 1025.1,-1535.6 -881,1766.1 			"/>
		</g>
		<g class="st4">
			<g class="st5">
				<defs>
					<rect id="SVGID_3_" width="2048" height="2048"/>
				</defs>
				<clipPath id="SVGID_4_">
					<use xlink:href="#SVGID_3_"  style="overflow:visible;"/>
				</clipPath>
				<g class="st6">
					<polyline class="st7" points="2093.9,1999.1 1025.1,147.9 -135.1,2157.5 					"/>
					<polyline class="st7" points="1982,2130.6 1025.1,473.3 44.7,2171.4 					"/>
					<polyline class="st7" points="2117.4,1712.9 1025.1,-178.9 -241.5,2015 					"/>
					<polyline class="st7" points="1759.7,2072.2 1025.1,799.9 290.6,2072.2 					"/>
					<polyline class="st7" points="2331.4,1747.7 1025.1,-514.8 -281.2,1747.7 					"/>
					<polyline class="st7" points="2626.1,1917.8 1025.1,-855 -575.8,1917.8 					"/>
					<polyline class="st7" points="2931.3,2094.1 1025.1,-1207.6 -881,2094.1 					"/>
					<polyline class="st7" points="1759.7,2405.9 1025.1,1133.6 290.6,2405.9 					"/>
					<polyline class="st7" points="1759.7,2737.2 1025.1,1464.9 290.6,2737.2 					"/>
					<polyline class="st7" points="1759.7,3068.5 1025.1,1796.3 290.6,3068.5 					"/>
					<polyline class="st7" points="2931.3,1766.1 1025.1,-1535.6 -881,1766.1 					"/>
				</g>
			</g>
		</g>
	</g>
	<g id="Layer_2" class="st0">
	</g>
</g>
</svg>
