<?xml version="1.0" encoding="utf-8"?>
<!-- Generator: Adobe Illustrator 21.1.0, SVG Export Plug-In . SVG Version: 6.00 Build 0)  -->
<svg version="1.1" id="Layer_1" xmlns="http://www.w3.org/2000/svg" xmlns:xlink="http://www.w3.org/1999/xlink" x="0px" y="0px"
	 viewBox="0 0 1024 1024" style="enable-background:new 0 0 1024 1024;" xml:space="preserve">
<style type="text/css">
	.st0{fill:none;stroke:#F26926;stroke-width:17;stroke-miterlimit:10;}
	.st1{fill:none;stroke:#F26926;stroke-width:18;stroke-miterlimit:10;}
</style>
<path class="st0" d="M465.3,641.7c-21.3-9.3-24.6-17.8-31.7-43.3l4-78.8L444,411c0-6.6,8.9-21.7,22-21.7h67h-1.7h67
	c13.1,0,22,15.1,22,21.7l6.4,108.6l4,78.8c-7.2,25.5-10.4,34-31.7,43.3"/>
<line class="st0" x1="442.3" y1="467.7" x2="623.9" y2="467.7"/>
<line class="st0" x1="435.8" y1="555" x2="623.9" y2="555"/>
<path class="st0" d="M546.4,722.5H369.9c0,0-14,1-21-7s-10.5-21.5-13-33s-15-48.5-10-58s18.5-9.5,23-7s35,26.5,43.5,28
	s36,9.8,55,4.1c19-5.6,47-20.6,87.4-21h-4.2C571,629,599,644,618,649.6c19,5.6,46.5-2.6,55-4.1s39-25.5,43.5-28s18-2.5,23,7
	s-7.5,46.5-10,58s-6,25-13,33s-21,7-21,7H519"/>
<path class="st0" d="M550.6,722.5H372.8c0,0-0.1,2,0,10.5s1.9,18.5,8.9,28.5s26.5,19,40.5,22.5s140.5,3,140.5,3l-2.6,0
	c0,0,66.5,0.5,80.5-3s33.5-12.5,40.5-22.5s8.8-20,8.9-28.5s0-10.5,0-10.5H512"/>
<g id="Layer_2">
	<path class="st0" d="M589.3,294.3h-116c-17.1,0-31-14-31-31V244c0-17.1,13.9-31,31-31h116c17.1,0,31,13.9,31,31v19.3
		C620.3,280.4,606.4,294.3,589.3,294.3z"/>
	<line class="st0" x1="480" y1="294.3" x2="480" y2="335.7"/>
	<line class="st1" x1="582.7" y1="294.3" x2="582.7" y2="335.7"/>
	<path class="st0" d="M625.7,651.7c0,0,44.7-18.7,56-44.7c11.3-26,8.7-50,5.3-58s-16-72.7-16-87.3c0-14.7,3.3-87.3,2-95.3
		s-8.7-22-20.7-23.3S533,343,533,343"/>
	<path class="st0" d="M441.3,651.6c0,0-44.7-18.7-56-44.7c-11.3-26-8.7-50-5.3-58s16-72.7,16-87.3c0-14.7-3.3-87.3-2-95.3
		s8.7-22,20.7-23.3c12-1.3,121,0,121,0"/>
</g>
</svg>
